<svg xmlns="http://www.w3.org/2000/svg" width="68.983" height="40.1"><path d="M41.9.46c1.504.548 2.324 2.05 2.324 4.785 0 2.733 0 3.963-9.156 3.826-5.194-.136-8.2-.41-6.834-.82C32.608 7.16 30.558 5.11 25.09 5.11c-3.006 0-5.465.547-5.465 1.367s.956 1.366 2.05 1.366c2.46 0 2.733 3.555.41 5.058-.957.546-4.647 1.093-8.2 1.093C3.088 13.99-2.79 22.465 1.31 32.17c2.05 5.193 9.568 9.02 14.898 7.653 1.913-.41 4.92-2.596 6.696-4.782 3.964-4.647 8.337-5.467 7.244-1.23-.41 1.503-.274 2.733.41 2.733.546 0 1.366-1.366 1.913-3.142.41-1.64 3.964-6.424 7.79-10.524 3.828-4.1 5.878-6.013 4.784-4.1-2.46 3.827-2.87 11.207-.683 15.307 2.324 4.374 10.114 6.97 15.58 5.194 7.654-2.46 11.344-12.026 7.517-19.27-2.186-3.826-9.293-7.106-13.94-6.15-3.28.684-4.1.274-5.33-3.006-.82-2.05-1.503-5.193-1.64-7.107-.273-2.595-1.093-3.415-3.69-3.69-2.05-.135-2.46 0-.956.41zM17.3 17c.548.41-.545 2.87-2.46 5.33-4.235 5.603-4.235 6.013.41 6.15 2.05 0 4.785.546 6.15.956 2.324.957 2.188 1.23-.41 4.1-3.962 4.237-8.882 5.194-12.982 2.46C.9 31.348.49 23.83 6.915 18.774c3.416-2.733 8.61-3.553 10.386-1.776zm6.424 8.2c0 1.776-5.603 2.46-7.243.956-.41-.546.138-2.46 1.368-4.236 2.187-3.28 2.323-3.28 4.1-.957.956 1.368 1.776 3.28 1.776 4.238zm4.51-3.417c1.914 5.604 1.914 6.56.137 6.56-1.092 0-1.912-.956-1.912-2.05 0-1.23-.957-3.962-2.05-6.286-1.23-2.186-1.777-4.646-1.23-5.466 1.23-2.05 2.597-.137 5.057 7.243zm12.984-4.1c-7.38 9.02-9.157 8.61-12.574-2.732-.956-2.87-.683-3.007 8.2-3.007 8.884 0 9.157 0 4.374 5.74zm21.456 1.778c6.97 6.833 2.733 17.63-6.833 17.63-6.286 0-10.25-4.237-10.25-10.934 0-6.286 2.188-6.97 6.288-1.913 4.51 5.33 6.013 4.374 1.913-1.092-1.64-2.324-2.596-4.784-2.186-5.604 1.64-2.596 7.653-1.64 11.07 1.914z"/></svg>