<svg xmlns="http://www.w3.org/2000/svg" width="744" height="436" viewBox="0 0 52 30"><path d="M31.7.6c1.1.4 1.7 1.5 1.7 3.5s0 2.9-6.7 2.8c-3.8-.1-6-.3-5-.6 3.2-.8 1.7-2.3-2.3-2.3-2.2 0-4 .4-4 1s.7 1 1.5 1c1.8 0 2 2.6.3 3.7-.7.4-3.4.8-6 .8C3.3 10.5-1 16.7 2 23.8c1.5 3.8 7 6.6 10.9 5.6 1.4-.3 3.6-1.9 4.9-3.5 2.9-3.4 6.1-4 5.3-.9-.3 1.1-.2 2 .3 2 .4 0 1-1 1.4-2.3.3-1.2 2.9-4.7 5.7-7.7 2.8-3 4.3-4.4 3.5-3-1.8 2.8-2.1 8.2-.5 11.2 1.7 3.2 7.4 5.1 11.4 3.8 5.6-1.8 8.3-8.8 5.5-14.1-1.6-2.8-6.8-5.2-10.2-4.5-2.4.5-3 .2-3.9-2.2-.6-1.5-1.1-3.8-1.2-5.2-.2-1.9-.8-2.5-2.7-2.7-1.5-.1-1.8 0-.7.3zm-18 12.1c.4.3-.4 2.1-1.8 3.9-3.1 4.1-3.1 4.4.3 4.5 1.5 0 3.5.4 4.5.7 1.7.7 1.6.9-.3 3-2.9 3.1-6.5 3.8-9.5 1.8-5.2-3.4-5.5-8.9-.8-12.6 2.5-2 6.3-2.6 7.6-1.3zm4.7 6c0 1.3-4.1 1.8-5.3.7-.3-.4.1-1.8 1-3.1 1.6-2.4 1.7-2.4 3-.7.7 1 1.3 2.4 1.3 3.1zm3.3-2.5c1.4 4.1 1.4 4.8.1 4.8-.8 0-1.4-.7-1.4-1.5 0-.9-.7-2.9-1.5-4.6-.9-1.6-1.3-3.4-.9-4 .9-1.5 1.9-.1 3.7 5.3zm9.5-3c-5.4 6.6-6.7 6.3-9.2-2-.7-2.1-.5-2.2 6-2.2s6.7 0 3.2 4.2zm15.7 1.3c5.1 5 2 12.9-5 12.9-4.6 0-7.5-3.1-7.5-8 0-4.6 1.6-5.1 4.6-1.4 3.3 3.9 4.4 3.2 1.4-.8-1.2-1.7-1.9-3.5-1.6-4.1 1.2-1.9 5.6-1.2 8.1 1.4z"/></svg>